<svg width="2461" height="1261" xmlns="http://www.w3.org/2000/svg" xmlns:xlink="http://www.w3.org/1999/xlink" overflow="hidden"><defs><clipPath id="clip0"><rect x="490" y="1365" width="2461" height="1261"/></clipPath><clipPath id="clip1"><rect x="492" y="1370" width="2455" height="1251"/></clipPath><clipPath id="clip2"><rect x="492" y="1370" width="2455" height="1251"/></clipPath><clipPath id="clip3"><rect x="623" y="1540" width="1936" height="978"/></clipPath><clipPath id="clip4"><rect x="623" y="1540" width="1936" height="978"/></clipPath><clipPath id="clip5"><rect x="623" y="1540" width="1936" height="978"/></clipPath><clipPath id="clip6"><rect x="492" y="1370" width="2455" height="1251"/></clipPath><clipPath id="clip7"><rect x="492" y="1370" width="2455" height="1251"/></clipPath><clipPath id="clip8"><rect x="492" y="1370" width="2455" height="1251"/></clipPath><clipPath id="clip9"><rect x="492" y="1370" width="2455" height="1251"/></clipPath><clipPath id="clip10"><rect x="492" y="1370" width="2455" height="1251"/></clipPath><clipPath id="clip11"><rect x="492" y="1370" width="2455" height="1251"/></clipPath><clipPath id="clip12"><rect x="492" y="1370" width="2455" height="1251"/></clipPath><clipPath id="clip13"><rect x="492" y="1370" width="2455" height="1251"/></clipPath><clipPath id="clip14"><rect x="492" y="1370" width="2455" height="1251"/></clipPath><clipPath id="clip15"><rect x="492" y="1370" width="2455" height="1251"/></clipPath><clipPath id="clip16"><rect x="492" y="1370" width="2455" height="1251"/></clipPath><clipPath id="clip17"><rect x="492" y="1370" width="2455" height="1251"/></clipPath><clipPath id="clip18"><rect x="492" y="1370" width="2455" height="1251"/></clipPath><clipPath id="clip19"><rect x="492" y="1370" width="2455" height="1251"/></clipPath><clipPath id="clip20"><rect x="492" y="1370" width="2455" height="1251"/></clipPath><clipPath id="clip21"><rect x="492" y="1370" width="2455" height="1251"/></clipPath><clipPath id="clip22"><rect x="492" y="1370" width="2455" height="1251"/></clipPath><clipPath id="clip23"><rect x="492" y="1370" width="2455" height="1251"/></clipPath><clipPath id="clip24"><rect x="492" y="1370" width="2455" height="1251"/></clipPath><clipPath id="clip25"><rect x="492" y="1370" width="2455" height="1251"/></clipPath><clipPath id="clip26"><rect x="492" y="1370" width="2455" height="1251"/></clipPath><clipPath id="clip27"><rect x="492" y="1370" width="2455" height="1251"/></clipPath><clipPath id="clip28"><rect x="492" y="1370" width="2455" height="1251"/></clipPath><clipPath id="clip29"><rect x="492" y="1370" width="2455" height="1251"/></clipPath><clipPath id="clip30"><rect x="492" y="1370" width="2455" height="1251"/></clipPath><clipPath id="clip31"><rect x="492" y="1370" width="2455" height="1251"/></clipPath></defs><g clip-path="url(#clip0)" transform="translate(-490 -1365)"><rect x="493" y="1370" width="2454" height="1252" fill="#FFFFFF" fill-opacity="1"/><g clip-path="url(#clip1)"><path d="M623.5 2352.58 2555.5 2352.58M623.5 2190.57 2555.5 2190.57M623.5 2027.57 2555.5 2027.57M623.5 1865.56 2555.5 1865.56M623.5 1702.56 2555.5 1702.56M623.5 1540.5 2555.5 1540.5" stroke="#D9D9D9" stroke-width="3.4375" stroke-linecap="butt" stroke-linejoin="round" stroke-miterlimit="10" stroke-opacity="1" fill="none" fill-rule="nonzero"/></g><g clip-path="url(#clip2)"><path d="M623.5 2515.5 2555.5 2515.5" stroke="#D9D9D9" stroke-width="3.4375" stroke-linecap="butt" stroke-linejoin="round" stroke-miterlimit="10" stroke-opacity="1" fill="none" fill-rule="evenodd"/></g><g clip-path="url(#clip3)"><path d="M704 2060.07 865.028 1938.06 1026.03 2060.07 1187.04 1938.06 1348.04 1614 1509.05 1703.06 1670.05 1808.06 1831.06 1930.06 1992.07 2036.07 2153.07 1987.07 2314.08 2077.07 2475 2215" stroke="#4472C4" stroke-width="10.3125" stroke-linecap="round" stroke-linejoin="round" stroke-miterlimit="10" stroke-opacity="1" fill="none" fill-rule="nonzero"/></g><g clip-path="url(#clip4)"><path d="M704 2247.07 865.028 2198.07 1026.03 2247.07 1187.04 2190.07 1348.04 2093 1509.05 2117.07 1670.05 2109.07 1831.06 2133.07 1992.07 2239.07 2153.07 2109.07 2314.08 2264 2475 2231.07" stroke="#ED7D31" stroke-width="10.3125" stroke-linecap="round" stroke-linejoin="round" stroke-miterlimit="10" stroke-opacity="1" fill="none" fill-rule="nonzero"/></g><g clip-path="url(#clip5)"><path d="M704 2459 865.028 2491.08 1026.03 2491.08 1187.04 2499.08 1348.04 2491.08 1509.05 2483.08 1670.05 2507 1831.06 2483.08 1992.07 2483.08M2314.08 2491.08 2475 2491.08" stroke="#A5A5A5" stroke-width="10.3125" stroke-linecap="round" stroke-linejoin="round" stroke-miterlimit="10" stroke-opacity="1" fill="none" fill-rule="nonzero"/></g><g clip-path="url(#clip6)"><text fill="#595959" fill-opacity="1" font-family="Calibri,Calibri_MSFontService,sans-serif" font-style="normal" font-variant="normal" font-weight="400" font-stretch="normal" font-size="41" text-anchor="start" direction="ltr" writing-mode="lr-tb" unicode-bidi="normal" text-decoration="none" transform="matrix(1 0 0 1 564.3 2526)">0</text></g><g clip-path="url(#clip7)"><text fill="#595959" fill-opacity="1" font-family="Calibri,Calibri_MSFontService,sans-serif" font-style="normal" font-variant="normal" font-weight="400" font-stretch="normal" font-size="41" text-anchor="start" direction="ltr" writing-mode="lr-tb" unicode-bidi="normal" text-decoration="none" transform="matrix(1 0 0 1 543.4 2363)">20</text></g><g clip-path="url(#clip8)"><text fill="#595959" fill-opacity="1" font-family="Calibri,Calibri_MSFontService,sans-serif" font-style="normal" font-variant="normal" font-weight="400" font-stretch="normal" font-size="41" text-anchor="start" direction="ltr" writing-mode="lr-tb" unicode-bidi="normal" text-decoration="none" transform="matrix(1 0 0 1 543.4 2201)">40</text></g><g clip-path="url(#clip9)"><text fill="#595959" fill-opacity="1" font-family="Calibri,Calibri_MSFontService,sans-serif" font-style="normal" font-variant="normal" font-weight="400" font-stretch="normal" font-size="41" text-anchor="start" direction="ltr" writing-mode="lr-tb" unicode-bidi="normal" text-decoration="none" transform="matrix(1 0 0 1 543.4 2038)">60</text></g><g clip-path="url(#clip10)"><text fill="#595959" fill-opacity="1" font-family="Calibri,Calibri_MSFontService,sans-serif" font-style="normal" font-variant="normal" font-weight="400" font-stretch="normal" font-size="41" text-anchor="start" direction="ltr" writing-mode="lr-tb" unicode-bidi="normal" text-decoration="none" transform="matrix(1 0 0 1 543.4 1876)">80</text></g><g clip-path="url(#clip11)"><text fill="#595959" fill-opacity="1" font-family="Calibri,Calibri_MSFontService,sans-serif" font-style="normal" font-variant="normal" font-weight="400" font-stretch="normal" font-size="41" text-anchor="start" direction="ltr" writing-mode="lr-tb" unicode-bidi="normal" text-decoration="none" transform="matrix(1 0 0 1 522.5 1713)">100</text></g><g clip-path="url(#clip12)"><text fill="#595959" fill-opacity="1" font-family="Calibri,Calibri_MSFontService,sans-serif" font-style="normal" font-variant="normal" font-weight="400" font-stretch="normal" font-size="41" text-anchor="start" direction="ltr" writing-mode="lr-tb" unicode-bidi="normal" text-decoration="none" transform="matrix(1 0 0 1 522.5 1551)">120</text></g><g clip-path="url(#clip13)"><text fill="#595959" fill-opacity="1" font-family="Calibri,Calibri_MSFontService,sans-serif" font-style="normal" font-variant="normal" font-weight="400" font-stretch="normal" font-size="41" text-anchor="start" direction="ltr" writing-mode="lr-tb" unicode-bidi="normal" text-decoration="none" transform="matrix(1 0 0 1 676.659 2581)">Jan</text></g><g clip-path="url(#clip14)"><text fill="#595959" fill-opacity="1" font-family="Calibri,Calibri_MSFontService,sans-serif" font-style="normal" font-variant="normal" font-weight="400" font-stretch="normal" font-size="41" text-anchor="start" direction="ltr" writing-mode="lr-tb" unicode-bidi="normal" text-decoration="none" transform="matrix(1 0 0 1 834.381 2581)">Feb</text></g><g clip-path="url(#clip15)"><text fill="#595959" fill-opacity="1" font-family="Calibri,Calibri_MSFontService,sans-serif" font-style="normal" font-variant="normal" font-weight="400" font-stretch="normal" font-size="41" text-anchor="start" direction="ltr" writing-mode="lr-tb" unicode-bidi="normal" text-decoration="none" transform="matrix(1 0 0 1 991.267 2581)">Mar</text></g><g clip-path="url(#clip16)"><text fill="#595959" fill-opacity="1" font-family="Calibri,Calibri_MSFontService,sans-serif" font-style="normal" font-variant="normal" font-weight="400" font-stretch="normal" font-size="41" text-anchor="start" direction="ltr" writing-mode="lr-tb" unicode-bidi="normal" text-decoration="none" transform="matrix(1 0 0 1 1157.01 2581)">Apr</text></g><g clip-path="url(#clip17)"><text fill="#595959" fill-opacity="1" font-family="Calibri,Calibri_MSFontService,sans-serif" font-style="normal" font-variant="normal" font-weight="400" font-stretch="normal" font-size="41" text-anchor="start" direction="ltr" writing-mode="lr-tb" unicode-bidi="normal" text-decoration="none" transform="matrix(1 0 0 1 1311.15 2581)">May</text></g><g clip-path="url(#clip18)"><text fill="#595959" fill-opacity="1" font-family="Calibri,Calibri_MSFontService,sans-serif" font-style="normal" font-variant="normal" font-weight="400" font-stretch="normal" font-size="41" text-anchor="start" direction="ltr" writing-mode="lr-tb" unicode-bidi="normal" text-decoration="none" transform="matrix(1 0 0 1 1480.75 2581)">Jun</text></g><g clip-path="url(#clip19)"><text fill="#595959" fill-opacity="1" font-family="Calibri,Calibri_MSFontService,sans-serif" font-style="normal" font-variant="normal" font-weight="400" font-stretch="normal" font-size="41" text-anchor="start" direction="ltr" writing-mode="lr-tb" unicode-bidi="normal" text-decoration="none" transform="matrix(1 0 0 1 1647.87 2581)">Jul</text></g><g clip-path="url(#clip20)"><text fill="#595959" fill-opacity="1" font-family="Calibri,Calibri_MSFontService,sans-serif" font-style="normal" font-variant="normal" font-weight="400" font-stretch="normal" font-size="41" text-anchor="start" direction="ltr" writing-mode="lr-tb" unicode-bidi="normal" text-decoration="none" transform="matrix(1 0 0 1 1798.54 2581)">Aug</text></g><g clip-path="url(#clip21)"><text fill="#595959" fill-opacity="1" font-family="Calibri,Calibri_MSFontService,sans-serif" font-style="normal" font-variant="normal" font-weight="400" font-stretch="normal" font-size="41" text-anchor="start" direction="ltr" writing-mode="lr-tb" unicode-bidi="normal" text-decoration="none" transform="matrix(1 0 0 1 1961.45 2581)">Sep</text></g><g clip-path="url(#clip22)"><text fill="#595959" fill-opacity="1" font-family="Calibri,Calibri_MSFontService,sans-serif" font-style="normal" font-variant="normal" font-weight="400" font-stretch="normal" font-size="41" text-anchor="start" direction="ltr" writing-mode="lr-tb" unicode-bidi="normal" text-decoration="none" transform="matrix(1 0 0 1 2123.76 2581)">Oct</text></g><g clip-path="url(#clip23)"><text fill="#595959" fill-opacity="1" font-family="Calibri,Calibri_MSFontService,sans-serif" font-style="normal" font-variant="normal" font-weight="400" font-stretch="normal" font-size="41" text-anchor="start" direction="ltr" writing-mode="lr-tb" unicode-bidi="normal" text-decoration="none" transform="matrix(1 0 0 1 2280.55 2581)">Nov</text></g><g clip-path="url(#clip24)"><text fill="#595959" fill-opacity="1" font-family="Calibri,Calibri_MSFontService,sans-serif" font-style="normal" font-variant="normal" font-weight="400" font-stretch="normal" font-size="41" text-anchor="start" direction="ltr" writing-mode="lr-tb" unicode-bidi="normal" text-decoration="none" transform="matrix(1 0 0 1 2443.4 2581)">Dec</text></g><g clip-path="url(#clip25)"><text fill="#595959" fill-opacity="1" font-family="Calibri,Calibri_MSFontService,sans-serif" font-style="normal" font-variant="normal" font-weight="400" font-stretch="normal" font-size="64" text-anchor="start" direction="ltr" writing-mode="lr-tb" unicode-bidi="normal" text-decoration="none" transform="matrix(1 0 0 1 1183.62 1466)">Theater Outcomes Based on Launch Date</text></g><g clip-path="url(#clip26)"><path d="M2627 1980 2715 1980" stroke="#4472C4" stroke-width="10.3125" stroke-linecap="round" stroke-linejoin="round" stroke-miterlimit="10" stroke-opacity="1" fill="none" fill-rule="evenodd"/></g><g clip-path="url(#clip27)"><text fill="#595959" fill-opacity="1" font-family="Calibri,Calibri_MSFontService,sans-serif" font-style="normal" font-variant="normal" font-weight="400" font-stretch="normal" font-size="41" text-anchor="start" direction="ltr" writing-mode="lr-tb" unicode-bidi="normal" text-decoration="none" transform="matrix(1 0 0 1 2724.58 1991)">successful</text></g><g clip-path="url(#clip28)"><path d="M2627 2058 2715 2058" stroke="#ED7D31" stroke-width="10.3125" stroke-linecap="round" stroke-linejoin="round" stroke-miterlimit="10" stroke-opacity="1" fill="none" fill-rule="evenodd"/></g><g clip-path="url(#clip29)"><text fill="#595959" fill-opacity="1" font-family="Calibri,Calibri_MSFontService,sans-serif" font-style="normal" font-variant="normal" font-weight="400" font-stretch="normal" font-size="41" text-anchor="start" direction="ltr" writing-mode="lr-tb" unicode-bidi="normal" text-decoration="none" transform="matrix(1 0 0 1 2724.58 2068)">failed</text></g><g clip-path="url(#clip30)"><path d="M2627 2135 2715 2135" stroke="#A5A5A5" stroke-width="10.3125" stroke-linecap="round" stroke-linejoin="round" stroke-miterlimit="10" stroke-opacity="1" fill="none" fill-rule="evenodd"/></g><g clip-path="url(#clip31)"><text fill="#595959" fill-opacity="1" font-family="Calibri,Calibri_MSFontService,sans-serif" font-style="normal" font-variant="normal" font-weight="400" font-stretch="normal" font-size="41" text-anchor="start" direction="ltr" writing-mode="lr-tb" unicode-bidi="normal" text-decoration="none" transform="matrix(1 0 0 1 2724.58 2145)">canceled</text></g><rect x="493.5" y="1370.5" width="2454" height="1252" stroke="#D9D9D9" stroke-width="3.4375" stroke-linecap="butt" stroke-linejoin="round" stroke-miterlimit="10" stroke-opacity="1" fill="none"/></g></svg>